<svg xmlns="http://www.w3.org/2000/svg" viewBox="0 0 1600 900">
  <defs>
    <linearGradient id="base" x1="0" y1="0" x2="1" y2="1">
      <stop stop-color="#20292d"/><stop offset="0.52" stop-color="#151b1e"/><stop offset="1" stop-color="#0b1012"/>
    </linearGradient>
    <pattern id="grain" width="26" height="26" patternUnits="userSpaceOnUse">
      <circle cx="4" cy="5" r="0.9" fill="#d8e5e4" opacity="0.035"/><circle cx="18" cy="19" r="0.7" fill="#d8e5e4" opacity="0.025"/>
    </pattern>
    <filter id="soft"><feGaussianBlur stdDeviation="18"/></filter>
  </defs>
  <rect width="1600" height="900" fill="url(#base)"/>
  <rect width="1600" height="900" fill="url(#grain)"/>
  <ellipse cx="1280" cy="214" rx="250" ry="168" fill="#4d95a6" opacity="0.08" filter="url(#soft)"/>
  <g fill="none" stroke-linecap="round">
    <path d="M92 388C152 388 152 254 212 254S272 520 332 520 392 318 452 318 512 448 572 448 632 282 692 282 752 476 812 476 872 338 932 338 992 416 1052 416 1112 248 1172 248 1232 520 1292 520 1352 352 1412 352 1472 388 1508 388" stroke="#5ca5b3" stroke-width="7" opacity="0.34"/>
    <path d="M92 430C180 430 180 350 268 350S356 474 444 474 532 374 620 374 708 450 796 450 884 356 972 356 1060 454 1148 454 1236 370 1324 370 1412 430 1508 430" stroke="#65aa87" stroke-width="4" opacity="0.24"/>
  </g>
  <g fill="#5ca5b3" opacity="0.18">
    <rect x="120" y="650" width="18" height="64"/><rect x="166" y="620" width="18" height="94"/><rect x="212" y="580" width="18" height="134"/><rect x="258" y="602" width="18" height="112"/>
    <rect x="304" y="642" width="18" height="72"/><rect x="350" y="560" width="18" height="154"/><rect x="396" y="612" width="18" height="102"/><rect x="442" y="666" width="18" height="48"/>
  </g>
  <g stroke="#75b295" stroke-width="2" opacity="0.13">
    <path d="M910 622H1470"/><path d="M910 654H1400"/><path d="M910 686H1450"/><path d="M910 718H1340"/>
  </g>
</svg>
